<svg xmlns="http://www.w3.org/2000/svg" version="1.1" xmlns:xlink="http://www.w3.org/1999/xlink" xmlns:svgjs="http://svgjs.com/svgjs" width="1440" height="560" preserveAspectRatio="none" viewBox="0 0 1440 560"><g mask="url(&quot;#SvgjsMask1000&quot;)" fill="none"><rect width="1440" height="560" x="0" y="0" fill="#0e2a47"></rect><path d="M211.71 637.54C392.95 634.98 536.72 426.58 903.18 419.54 1269.64 412.5 1409.24 155.41 1594.65 150.74" stroke="rgba(51,121,194,0.58)" stroke-width="2"></path><path d="M475.83 665.29C614.77 664.88 736.62 568.81 1022.5 565.07 1308.38 561.33 1420.47 334.79 1569.17 329.87" stroke="rgba(51,121,194,0.58)" stroke-width="2"></path><path d="M391.92 645.49C529.89 601.75 482.16 204.23 766.12 203.72 1050.08 203.21 1315.75 468.49 1514.51 472.52" stroke="rgba(51,121,194,0.58)" stroke-width="2"></path><path d="M494.15 639.55C643.25 620.35 701.55 296.24 975.61 279.27 1249.66 262.3 1329.6 113.66 1457.06 111.27" stroke="rgba(51,121,194,0.58)" stroke-width="2"></path><path d="M569.52 615.66C690.46 584.85 653.15 255.26 914.57 254.89 1175.99 254.52 1424.15 465.29 1604.68 467.69" stroke="rgba(51,121,194,0.58)" stroke-width="2"></path></g><defs><mask id="SvgjsMask1000"><rect width="1440" height="560" fill="#ffffff"></rect></mask></defs></svg>